#!OML:ASF H:\Pregnant\Project 1\Capture day 1\Session 1\femalepreg.ASF
:FULLY-SPECIFIED
:DEGREES
465
root 3.57358 15.9876 12.2657 21.3308 -9.7993 -0.27129
lowerback -21.0573 -0.940835 -1.53866
upperback -8.61969 -1.07538 1.79438
thorax 2.47014 -0.501426 2.54448
lowerneck -20.4982 -3.31071 -0.947306
upperneck 25.9537 -5.40716 3.10018
head 12.0684 -2.11481 0.437261
rclavicle 2.77305e-014 1.15295e-014
rhumerus -36.8456 3.14025 -82.7799
rradius 28.6442
rwrist -3.77172
rhand -13.9743 -14.2642
rfingers 7.12502
rthumb 12.1538 -43.8912
lclavicle 2.77305e-014 1.15295e-014
lhumerus -40.6875 -2.88786 86.3927
lradius 32.9349
lwrist 36.7449
lhand -26.6311 -0.458404
lfingers 7.12502
lthumb -0.0638272 29.5213
rfemur -28.4464 24.9863 7.45031
rtibia 27.8679
rfoot -12.0262 -30.6133
rtoes -16.6304
lfemur -10.3767 -7.02608 -16.5468
ltibia -2.22639e-014
lfoot -5.30454 19.6059
ltoes -4.01074
466
root 3.57345 15.9882 12.2608 21.3289 -9.79846 -0.259651
lowerback -21.0181 -0.956313 -1.56026
upperback -8.62767 -1.09203 1.7999
thorax 2.44306 -0.508877 2.55921
lowerneck -20.4689 -3.36248 -1.01593
upperneck 25.906 -5.47951 3.17941
head 12.0508 -2.14472 0.466978
rclavicle -1.40143e-014 -1.94809e-014
rhumerus -36.7711 3.41769 -83.0005
rradius 28.8433
rwrist -3.88807
rhand -13.8725 -14.0885
rfingers 7.12502
rthumb 12.2521 -43.7096
lclavicle -1.40143e-014 -1.94809e-014
lhumerus -40.6576 -2.96309 86.4806
lradius 33.0391
lwrist 36.4371
lhand -26.7786 -0.80348
lfingers 7.12502
lthumb -0.206239 29.1762
rfemur -28.467 24.9845 7.43152
rtibia 27.8675
rfoot -12.0114 -30.6144
rtoes -16.617
lfemur -10.4003 -7.03002 -16.5527
ltibia -1.43125e-014
lfoot -5.26429 19.6086
ltoes -4.08615
467
root 3.57335 15.9888 12.2558 21.3277 -9.79764 -0.251539
lowerback -20.9823 -0.97174 -1.57924
upperback -8.63336 -1.10923 1.80788
thorax 2.42019 -0.516664 2.57493
lowerneck -20.4361 -3.41839 -1.09215
upperneck 25.8539 -5.55616 3.26268
head 12.0313 -2.17692 0.498807
rclavicle 2.41523e-014 1.27222e-014
rhumerus -36.7035 3.70677 -83.2197
rradius 29.0375
rwrist -4.02855
rhand -13.784 -13.9175
rfingers 7.12502
rthumb 12.3374 -43.5335
lclavicle 2.41523e-014 1.27222e-014
lhumerus -40.6349 -3.03179 86.5614
lradius 33.138
lwrist 36.1356
lhand -26.8578 -1.11835
lfingers 7.12502
lthumb -0.282788 28.8612
rfemur -28.4867 24.981 7.4166
rtibia 27.8648
rfoot -11.9945 -30.6126
rtoes -16.6079
lfemur -10.4233 -7.03251 -16.555
ltibia -2.8625e-014
lfoot -5.22749 19.6108
ltoes -4.13295
468
root 3.57325 15.9896 12.2507 21.3278 -9.79572 -0.246344
lowerback -20.9458 -0.98641 -1.59471
upperback -8.64055 -1.12609 1.81512
thorax 2.3953 -0.524339 2.58795
lowerneck -20.3934 -3.47714 -1.16504
upperneck 25.7955 -5.6367 3.34269
head 12.0074 -2.21128 0.528379
rclavicle 8.74653e-015 2.38542e-014
rhumerus -36.6489 3.98996 -83.4328
rradius 29.2286
rwrist -4.15737
rhand -13.6799 -13.793
rfingers 7.12502
rthumb 12.4377 -43.4029
lclavicle 8.74653e-015 2.38542e-014
lhumerus -40.6232 -3.09941 86.6328
lradius 33.2279
lwrist 35.8579
lhand -26.8868 -1.40309
lfingers 7.12502
lthumb -0.310724 28.5764
rfemur -28.5059 24.9748 7.40528
rtibia 27.8592
rfoot -11.9822 -30.607
rtoes -16.5846
lfemur -10.4474 -7.03464 -16.5531
ltibia 1.59028e-015
lfoot -5.19638 19.6123
ltoes -4.15418
469
root 3.57318 15.9905 12.2453 21.3273 -9.79359 -0.243947
lowerback -20.908 -1.00033 -1.60669
upperback -8.64486 -1.14268 1.82255
thorax 2.37283 -0.531984 2.59927
lowerneck -20.3539 -3.54269 -1.22349
upperneck 25.7327 -5.72516 3.40126
head 11.9816 -2.25066 0.546183
rclavicle -2.35063e-014 2.3059e-014
rhumerus -36.5959 4.2693 -83.6392
rradius 29.4134
rwrist -4.27198
rhand -13.5859 -13.7099
rfingers 7.12502
rthumb 12.5284 -43.3143
lclavicle -2.35063e-014 2.3059e-014
lhumerus -40.6119 -3.16216 86.6951
lradius 33.3068
lwrist 35.6161
lhand -26.8828 -1.62119
lfingers 7.12502
lthumb -0.306876 28.3583
rfemur -28.5231 24.9649 7.39845
rtibia 27.8511
rfoot -11.9685 -30.5966
rtoes -16.5649
lfemur -10.4705 -7.03574 -16.548
ltibia -5.24792e-014
lfoot -5.17469 19.613
ltoes -4.14739
